<?xml version="1.0" standalone="no"?>
<!DOCTYPE svg PUBLIC "-//W3C//DTD SVG 20010904//EN"
 "http://www.w3.org/TR/2001/REC-SVG-20010904/DTD/svg10.dtd">
<svg version="1.0" xmlns="http://www.w3.org/2000/svg"
 width="818.000000pt" height="818.000000pt" viewBox="0 0 818.000000 818.000000"
 preserveAspectRatio="xMidYMid meet">
<metadata>
Created by potrace 1.14, written by Peter Selinger 2001-2017
</metadata>
<g transform="translate(0.000000,818.000000) scale(0.100000,-0.100000)"
fill="#000000" stroke="none">
<path d="M3996 7559 c-71 -45 -86 -90 -86 -264 0 -109 -3 -145 -12 -146 -7 -1
-22 -3 -33 -4 -11 -2 -54 -5 -95 -8 -76 -6 -109 -10 -210 -27 -30 -5 -71 -12
-90 -15 -19 -3 -73 -15 -120 -26 -47 -11 -96 -23 -110 -25 -39 -8 -235 -71
-335 -108 -147 -56 -317 -135 -445 -208 -140 -80 -145 -83 -150 -88 -3 -3 -45
-32 -94 -65 -49 -33 -99 -67 -111 -75 -24 -17 -107 -81 -115 -90 -3 -3 -32
-27 -65 -55 -364 -303 -700 -750 -890 -1185 -60 -136 -69 -159 -140 -365 -13
-39 -61 -212 -71 -258 -51 -235 -69 -382 -79 -638 -3 -105 -1 -131 13 -159 37
-74 119 -95 186 -49 20 13 36 28 36 33 0 11 86 131 125 175 145 163 324 276
530 336 118 34 139 37 290 41 112 2 222 -9 290 -29 6 -2 37 -11 70 -21 234
-70 468 -251 609 -473 45 -71 63 -83 121 -85 61 -1 83 17 155 121 73 107 160
198 262 275 69 52 220 136 244 136 8 0 10 -391 10 -1357 -1 -1491 3 -1387 -61
-1417 -50 -24 -101 -10 -137 39 -14 19 -17 54 -21 221 -4 219 -10 248 -68 332
-43 63 -105 109 -183 138 -200 72 -430 -48 -486 -256 -13 -48 -17 -410 -5
-490 28 -192 97 -337 227 -475 128 -137 306 -234 483 -262 91 -15 273 -7 358
16 297 78 537 322 617 626 17 65 33 229 31 315 0 8 -1 62 -1 120 0 58 0 112 0
120 0 8 0 62 0 120 0 58 0 112 0 120 0 21 0 223 1 235 0 11 0 926 -1 960 0 11
0 67 0 125 0 58 0 112 0 120 0 8 0 62 0 120 0 58 0 112 0 120 0 8 0 62 0 120
1 127 1 108 0 205 -2 123 -4 115 30 105 57 -16 195 -89 270 -141 101 -70 214
-188 285 -294 64 -96 94 -120 146 -119 58 1 87 24 146 113 68 103 201 238 298
303 197 132 400 195 630 196 99 0 147 -5 239 -23 72 -15 216 -69 292 -110 169
-92 296 -209 405 -371 28 -41 60 -81 73 -89 72 -48 176 -3 192 83 10 53 -7
362 -26 477 -5 33 -12 77 -15 98 -3 21 -12 73 -21 115 -9 42 -17 84 -19 92
-21 105 -102 357 -162 505 -125 308 -277 561 -522 872 -115 147 -368 389 -551
529 -36 27 -66 52 -68 57 -2 4 -10 7 -17 7 -7 0 -15 4 -17 8 -3 8 -160 114
-203 138 -11 6 -38 21 -60 34 -105 62 -332 171 -425 205 -19 7 -48 19 -65 26
-16 7 -32 13 -35 14 -3 1 -63 20 -135 43 -169 53 -234 70 -369 93 -33 5 -62
12 -66 14 -3 2 -35 6 -70 10 -34 3 -66 7 -69 10 -4 2 -45 7 -91 10 -47 4 -96
9 -110 10 -14 2 -30 3 -36 4 -8 1 -12 44 -12 144 0 187 -18 234 -105 279 -54
27 -127 22 -181 -13z"/>
</g>
</svg>
